#!OML:ASF X:\für Bonn\!DataBase\2005_08_11_Bastian_Final\c3d\Bastian.ASF
:FULLY-SPECIFIED
:DEGREES
31
root -1.58916 16.3539 1.69541 169.882 -3.80886 -176.176
lowerback 20.8396 -0.646769 0.306181
upperback 5.9425 -1.82597 0.276407
thorax -5.18411 -1.34331 0.613648
lowerneck -9.76769 -7.48172 -4.18966
upperneck -6.16062 -8.65544 11.8176
head 0.515425 -3.80638 4.28964
rclavicle 8.84592e-015 0
rhumerus 79.4892 20.2551 17.7932
rradius 38.7165
rwrist -65.4271
rhand -48.1225 -9.51116
rfingers 7.12502
rthumb -20.7861 -38.4178
lclavicle 8.84592e-015 0
lhumerus 77.745 -25.7645 -29.4724
lradius 30.7122
lwrist 23.7886
lhand -43.4666 21.3217
lfingers 7.12502
lthumb -16.3077 50.6559
rfemur -12.2096 -3.82721 24.6346
rtibia 56.4206
rfoot -28.5044 -9.09434
rtoes -7.56075
lfemur -12.1144 3.53455 -15.628
ltibia 56.3367
lfoot -23.0127 -9.29892
ltoes -3.39177
32
root -1.58318 16.2322 1.69923 169.598 -3.81332 -176.105
lowerback 21.2355 -0.639754 0.352055
upperback 5.99057 -1.83171 0.304889
thorax -5.33676 -1.35751 0.631574
lowerneck -9.74306 -7.52017 -4.17228
upperneck -6.23747 -8.70236 11.7431
head 0.484419 -3.83295 4.25901
rclavicle 5.86415e-015 -1.86858e-014
rhumerus 79.4428 19.9858 17.9646
rradius 38.7288
rwrist -65.4353
rhand -48.0319 -9.69803
rfingers 7.12502
rthumb -20.6991 -38.6142
lclavicle 5.86415e-015 -1.86858e-014
lhumerus 78.0543 -25.4616 -30.9177
lradius 31.0733
lwrist 25.0291
lhand -43.5775 21.3027
lfingers 7.12502
lthumb -16.4144 50.6282
rfemur -12.7273 -4.13875 24.6641
rtibia 58.077
rfoot -29.2965 -9.05865
rtoes -7.62792
lfemur -12.9231 3.20277 -15.4881
ltibia 58.4701
lfoot -23.7622 -9.7281
ltoes -2.14325
33
root -1.57728 16.1035 1.70259 169.336 -3.80259 -176.038
lowerback 21.6294 -0.624637 0.37906
upperback 6.02899 -1.82813 0.346775
thorax -5.49739 -1.36651 0.672586
lowerneck -9.77959 -7.5593 -4.17703
upperneck -6.26288 -8.75365 11.6607
head 0.482005 -3.85899 4.22679
rclavicle -6.06293e-015 -1.74931e-014
rhumerus 79.4013 19.6664 18.1871
rradius 38.7581
rwrist -65.535
rhand -47.976 -9.86516
rfingers 7.12502
rthumb -20.6453 -38.7872
lclavicle -6.06293e-015 -1.74931e-014
lhumerus 78.1982 -25.144 -31.9637
lradius 31.3179
lwrist 25.8728
lhand -43.6051 21.1801
lfingers 7.12502
lthumb -16.441 50.5034
rfemur -13.3405 -4.461 24.6858
rtibia 59.8688
rfoot -30.1612 -9.01425
rtoes -7.65229
lfemur -13.752 2.92222 -15.3561
ltibia 60.6241
lfoot -24.8182 -10.0739
ltoes -2.13512
34
root -1.57153 15.9681 1.7064 169.049 -3.75905 -175.953
lowerback 22.0433 -0.595058 0.431444
upperback 6.08522 -1.8047 0.396402
thorax -5.6487 -1.36839 0.702783
lowerneck -9.84005 -7.5999 -4.19396
upperneck -6.30193 -8.80115 11.5911
head 0.480338 -3.88101 4.20114
rclavicle 1.44119e-014 -1.07344e-014
rhumerus 79.3422 19.2959 18.4912
rradius 38.8331
rwrist -65.8071
rhand -47.9961 -9.88629
rfingers 7.12502
rthumb -20.6646 -38.8062
lclavicle 1.44119e-014 -1.07344e-014
lhumerus 78.2232 -24.7757 -32.6097
lradius 31.4298
lwrist 26.3753
lhand -43.5431 21.0103
lfingers 7.12502
lthumb -16.3813 50.3385
rfemur -13.9952 -4.77876 24.7243
rtibia 61.7837
rfoot -31.0169 -8.9432
rtoes -7.51464
lfemur -14.5343 2.68352 -15.2018
ltibia 62.7699
lfoot -26.0525 -10.3666
ltoes -2.46517
35
root -1.56646 15.8232 1.71096 168.787 -3.70007 -175.84
lowerback 22.461 -0.570643 0.514378
upperback 6.1097 -1.77352 0.463395
thorax -5.83592 -1.36422 0.732981
lowerneck -9.84627 -7.63576 -4.24052
upperneck -6.35803 -8.84084 11.5305
head 0.465159 -3.90142 4.18686
rclavicle 1.77912e-014 7.55382e-015
rhumerus 79.2771 18.9282 18.8075
rradius 38.9519
rwrist -66.2531
rhand -48.0844 -9.79483
rfingers 7.12502
rthumb -20.7495 -38.7055
lclavicle 1.77912e-014 7.55382e-015
lhumerus 78.1372 -24.4541 -32.8808
lradius 31.4299
lwrist 26.4713
lhand -43.4422 20.8121
lfingers 7.12502
lthumb -16.2842 50.1483
rfemur -14.745 -5.05709 24.8031
rtibia 63.8108
rfoot -31.8905 -8.87261
rtoes -7.43472
lfemur -15.3514 2.51984 -15.0221
ltibia 64.9265
lfoot -27.4096 -10.5837
ltoes -3.21731
36
root -1.56086 15.6706 1.71527 168.526 -3.63359 -175.777
lowerback 22.8766 -0.532799 0.53522
upperback 6.14163 -1.73994 0.53396
thorax -6.01194 -1.3595 0.801603
lowerneck -9.87477 -7.67318 -4.33671
upperneck -6.41456 -8.8773 11.4787
head 0.456682 -3.91828 4.18456
rclavicle -7.95139e-016 1.15295e-014
rhumerus 79.2193 18.5265 19.1808
rradius 39.0844
rwrist -66.7721
rhand -48.2466 -9.55958
rfingers 7.12502
rthumb -20.9054 -38.4531
lclavicle -7.95139e-016 1.15295e-014
lhumerus 78.005 -24.1058 -33.1151
lradius 31.4096
lwrist 26.5433
lhand -43.3586 20.6545
lfingers 7.12502
lthumb -16.2037 49.9973
rfemur -15.5386 -5.34508 24.827
rtibia 65.9298
rfoot -32.7089 -8.83793
rtoes -7.54166
lfemur -16.1515 2.38874 -14.9075
ltibia 67.0792
lfoot -28.7926 -10.7717
ltoes -3.53969
37
root -1.55493 15.5101 1.71871 168.252 -3.54796 -175.669
lowerback 23.3035 -0.493861 0.617593
upperback 6.16856 -1.69023 0.603783
thorax -6.19992 -1.34744 0.830294
lowerneck -9.88458 -7.71923 -4.40788
upperneck -6.48561 -8.92531 11.4357
head 0.44032 -3.94142 4.18083
rclavicle 1.2921e-014 -5.56597e-015
rhumerus 79.0489 18.2268 18.8215
rradius 38.9437
rwrist -66.7333
rhand -48.2183 -9.25989
rfingers 7.12502
rthumb -20.8782 -38.1564
lclavicle 1.2921e-014 -5.56597e-015
lhumerus 77.8374 -23.7349 -33.1626
lradius 31.3425
lwrist 26.4061
lhand -43.249 20.5558
lfingers 7.12502
lthumb -16.0981 49.9071
rfemur -16.3733 -5.60343 24.9103
rtibia 68.1334
rfoot -33.5231 -8.79063
rtoes -7.57522
lfemur -16.9269 2.30821 -14.7341
ltibia 69.254
lfoot -30.1074 -11.0408
ltoes -3.49756
38
root -1.54803 15.341 1.72193 168.001 -3.43451 -175.561
lowerback 23.6864 -0.44702 0.677524
upperback 6.2057 -1.63569 0.679538
thorax -6.35306 -1.33357 0.875062
lowerneck -9.9326 -7.75271 -4.47926
upperneck -6.54181 -8.95444 11.4148
head 0.435261 -3.95252 4.18459
rclavicle 7.65321e-015 1.19271e-015
rhumerus 78.8531 17.9022 18.3118
rradius 38.7882
rwrist -66.5528
rhand -48.1215 -9.0376
rfingers 7.12502
rthumb -20.7852 -37.9443
lclavicle 7.65321e-015 1.19271e-015
lhumerus 77.6508 -23.3389 -33.3085
lradius 31.2893
lwrist 26.3256
lhand -43.1443 20.5787
lfingers 7.12502
lthumb -15.9973 49.9382
rfemur -17.2788 -5.82809 25.0113
rtibia 70.4193
rfoot -34.3133 -8.75265
rtoes -7.60652
lfemur -17.7459 2.27406 -14.5494
ltibia 71.4675
lfoot -31.421 -11.3188
ltoes -3.07165
39
root -1.54009 15.1613 1.72531 167.756 -3.34575 -175.468
lowerback 24.0749 -0.401194 0.727485
upperback 6.22861 -1.58156 0.749316
thorax -6.52409 -1.31858 0.919415
lowerneck -9.94629 -7.79798 -4.53468
upperneck -6.61605 -9.00158 11.3687
head 0.417392 -3.97502 4.17676
rclavicle 1.49089e-014 -9.14409e-015
rhumerus 78.6962 17.549 18.1588
rradius 38.7409
rwrist -66.7219
rhand -48.1518 -8.74394
rfingers 7.12502
rthumb -20.8142 -37.6475
lclavicle 1.49089e-014 -9.14409e-015
lhumerus 77.48 -22.9357 -33.3763
lradius 31.2156
lwrist 26.2167
lhand -43.0885 20.6989
lfingers 7.12502
lthumb -15.9435 50.0627
rfemur -18.242 -6.06606 25.1
rtibia 72.7851
rfoot -35.0818 -8.73392
rtoes -7.61068
lfemur -18.577 2.27153 -14.3805
ltibia 73.7423
lfoot -32.873 -11.5585
ltoes -3.11169
40
root -1.53062 14.9739 1.7281 167.503 -3.22319 -175.366
lowerback 24.4632 -0.34733 0.755634
upperback 6.26302 -1.52437 0.835677
thorax -6.68107 -1.30367 0.993095
lowerneck -9.99316 -7.81965 -4.62878
upperneck -6.674 -9.0128 11.344
head 0.411092 -3.97692 4.1846
rclavicle -1.28216e-014 1.55052e-014
rhumerus 78.5784 17.132 18.2329
rradius 38.7962
rwrist -67.026
rhand -48.2269 -8.54872
rfingers 7.12502
rthumb -20.8864 -37.4443
lclavicle -1.28216e-014 1.55052e-014
lhumerus 77.2648 -22.5284 -33.491
lradius 31.1567
lwrist 26.1169
lhand -43.0587 20.8659
lfingers 7.12502
lthumb -15.9149 50.232
rfemur -19.2248 -6.24386 25.2233
rtibia 75.2086
rfoot -35.8658 -8.67457
rtoes -7.36762
lfemur -19.4019 2.32015 -14.176
ltibia 76.0879
lfoot -34.3044 -11.8288
ltoes -2.81635
41
root -1.52043 14.7772 1.731 167.27 -3.11377 -175.277
lowerback 24.8414 -0.292338 0.793191
upperback 6.2752 -1.45875 0.89748
thorax -6.85786 -1.28218 1.03195
lowerneck -9.9752 -7.85035 -4.69098
upperneck -6.76357 -9.0368 11.3428
head 0.383946 -3.98768 4.19675
rclavicle -1.63997e-014 1.19271e-015
rhumerus 78.459 16.7057 18.5448
rradius 38.9214
rwrist -67.5227
rhand -48.3262 -8.45277
rfingers 7.12502
rthumb -20.9818 -37.3379
lclavicle -1.63997e-014 1.19271e-015
lhumerus 77.1112 -22.1224 -33.6639
lradius 31.1197
lwrist 26.0068
lhand -43.0592 21.1932
lfingers 7.12502
lthumb -15.9154 50.5593
rfemur -20.2631 -6.45495 25.3375
rtibia 77.6914
rfoot -36.5992 -8.67469
rtoes -7.27281
lfemur -20.3016 2.40814 -13.9756
ltibia 78.5233
lfoot -35.6256 -12.1208
ltoes -2.60692
42
root -1.51039 14.5741 1.73472 167.021 -2.99682 -175.164
lowerback 25.235 -0.239289 0.842419
upperback 6.2982 -1.39516 0.974577
thorax -7.02973 -1.26371 1.08152
lowerneck -9.98529 -7.88185 -4.78843
upperneck -6.85319 -9.05612 11.3622
head 0.364471 -3.99353 4.22221
rclavicle -2.43511e-014 9.93923e-015
rhumerus 78.3458 16.2189 19.0321
rradius 39.1011
rwrist -68.1059
rhand -48.4172 -8.40913
rfingers 7.12502
rthumb -21.0692 -37.2845
lclavicle -2.43511e-014 9.93923e-015
lhumerus 76.9412 -21.7035 -33.8687
lradius 31.1104
lwrist 26.0575
lhand -43.1311 21.4719
lfingers 7.12502
lthumb -15.9846 50.8324
rfemur -21.3074 -6.62879 25.489
rtibia 80.2042
rfoot -37.3351 -8.67466
rtoes -7.29322
lfemur -21.2444 2.50738 -13.741
ltibia 81.0405
lfoot -36.7609 -12.4306
ltoes -2.27664
43
root -1.50099 14.3657 1.73711 166.811 -2.86773 -175.073
lowerback 25.6036 -0.190576 0.881745
upperback 6.29615 -1.33384 1.02879
thorax -7.21679 -1.24316 1.11174
lowerneck -9.9576 -7.89939 -4.85076
upperneck -6.93527 -9.06227 11.3982
head 0.338904 -3.99494 4.24889
rclavicle 7.7526e-015 5.1684e-015
rhumerus 78.2413 15.7664 19.513
rradius 39.2866
rwrist -68.5838
rhand -48.4961 -8.51414
rfingers 7.12502
rthumb -21.1451 -37.3811
lclavicle 7.7526e-015 5.1684e-015
lhumerus 76.7936 -21.3061 -34.1357
lradius 31.12
lwrist 26.0935
lhand -43.1837 21.8762
lfingers 7.12502
lthumb -16.0352 51.2326
rfemur -22.4021 -6.80649 25.6203
rtibia 82.7426
rfoot -38.0271 -8.6788
rtoes -7.27677
lfemur -22.2784 2.67884 -13.525
ltibia 83.6477
lfoot -37.6907 -12.7435
ltoes -2.16089
